<?xml version="1.0" standalone="no"?>
<!DOCTYPE svg PUBLIC "-//W3C//DTD SVG 20010904//EN"
 "http://www.w3.org/TR/2001/REC-SVG-20010904/DTD/svg10.dtd">
<svg version="1.0" xmlns="http://www.w3.org/2000/svg"
 width="512.000000pt" height="512.000000pt" viewBox="0 0 512.000000 512.000000"
 preserveAspectRatio="xMidYMid meet">
<metadata>
Created by potrace 1.11, written by Peter Selinger 2001-2013
</metadata>
<g transform="translate(0.000000,512.000000) scale(0.100000,-0.100000)"
fill="#000000" stroke="none">
<path d="M2500 5110 c-14 -4 -50 -13 -80 -19 -30 -7 -136 -29 -235 -51 -99
-21 -191 -41 -205 -44 -103 -20 -139 -28 -245 -51 -66 -15 -129 -28 -139 -30
-10 -3 -103 -22 -205 -44 -102 -22 -201 -43 -220 -46 -19 -3 -37 -7 -40 -9 -3
-2 -22 -7 -41 -10 -19 -3 -64 -12 -100 -20 -36 -8 -76 -17 -90 -20 -14 -2 -69
-14 -124 -26 -54 -12 -106 -23 -115 -25 -9 -2 -47 -10 -84 -18 -81 -18 -107
-38 -107 -83 0 -47 29 -65 167 -103 l120 -33 0 -442 c0 -401 -1 -443 -17 -461
-18 -22 -38 -85 -47 -148 -7 -52 -6 -334 1 -402 11 -115 19 -164 36 -240 23
-100 42 -144 72 -172 22 -21 26 -22 46 -7 43 30 78 130 102 294 17 121 20 166
20 335 1 140 -2 193 -15 255 -2 8 -4 20 -4 26 -1 6 -12 28 -26 48 l-25 37 3
402 2 402 40 3 c36 3 258 -51 278 -68 4 -4 0 -37 -8 -75 -9 -37 -19 -112 -22
-166 -6 -107 10 -177 51 -234 18 -24 21 -37 15 -65 -25 -118 -27 -299 -5 -449
9 -57 18 -106 21 -109 2 -3 -3 -12 -13 -21 -96 -85 -145 -311 -103 -467 29
-108 91 -195 160 -223 24 -11 30 -20 35 -60 29 -216 147 -503 285 -689 66 -89
194 -221 252 -259 l39 -26 0 -168 c0 -128 -3 -169 -12 -170 -7 0 -148 -2 -313
-3 -322 -4 -388 -11 -514 -61 -257 -100 -457 -328 -527 -600 -11 -41 -17 -128
-21 -277 l-5 -218 2021 0 2022 0 -1 188 c-1 245 -29 381 -102 505 -15 26 -28
50 -28 53 0 3 -20 31 -44 62 -106 136 -239 236 -388 292 -128 47 -177 53 -503
56 -170 1 -313 3 -317 3 -5 1 -8 77 -8 169 l0 169 43 31 c174 127 347 364 440
602 30 76 72 218 82 275 4 22 8 47 10 55 2 8 4 25 4 36 1 14 12 26 33 35 45
19 92 67 123 128 84 167 61 427 -50 544 -14 15 -24 31 -21 35 4 7 11 60 22
162 6 68 6 265 -1 303 -3 15 -7 37 -9 50 -2 12 -7 34 -11 49 -5 20 -1 35 18
60 42 55 60 136 53 241 -3 51 -12 123 -21 162 -8 38 -11 72 -7 76 4 3 164 51
356 105 192 54 360 107 373 117 29 23 31 76 4 101 -16 15 -134 46 -271 72 -40
8 -713 152 -860 185 -74 16 -145 31 -158 34 -13 2 -31 6 -40 9 -9 3 -33 8 -52
11 -19 3 -170 35 -335 71 -313 67 -373 77 -415 64z"/>
</g>
</svg>
