<svg xmlns="http://www.w3.org/2000/svg" width="14.468" height="11.1" viewBox="0 0 14.468 11.1">
  <defs>
    <style>
      .cls-1 {
        fill: #7cc576;
        fill-rule: evenodd;
      }
    </style>
  </defs>
  <path id="Arrow-Right" class="cls-1" d="M362.4,2511.46l-4.672-4.67a0.854,0.854,0,0,0-1.217,0,0.864,0.864,0,0,0,0,1.22l3.2,3.2H349.044a0.86,0.86,0,1,0,0,1.72h10.665l-3.2,3.21a0.864,0.864,0,0,0,0,1.22,0.866,0.866,0,0,0,1.217,0l4.672-4.68a0.86,0.86,0,0,0,.252-0.61A0.878,0.878,0,0,0,362.4,2511.46Z" transform="translate(-348.188 -2506.53)"/>
</svg>
