<svg xmlns="http://www.w3.org/2000/svg" width="18.687" height="29.88" viewBox="0 0 18.687 29.88">
  <defs>
    <style>
      .cls-1 {
        fill: #ececec;
        fill-rule: evenodd;
      }
    </style>
  </defs>
  <path id="contactus_icon2.svg" class="cls-1" d="M233.723,4588.82H248.65a1.87,1.87,0,0,1,1.866,1.87v26.12a1.87,1.87,0,0,1-1.866,1.87H233.723a1.87,1.87,0,0,1-1.866-1.87v-26.12A1.87,1.87,0,0,1,233.723,4588.82Zm3.265,1.87h8.4a0.465,0.465,0,1,1,0,.93h-8.4A0.465,0.465,0,1,1,236.988,4590.69Zm-3.265,2.8H248.65v21.46H233.723v-21.46Zm7.464,22.39a0.93,0.93,0,1,1-.933.93A0.934,0.934,0,0,1,241.187,4615.88Z" transform="translate(-231.844 -4588.81)"/>
</svg>
