<svg id="culture_icon1.svg" xmlns="http://www.w3.org/2000/svg" width="92" height="92" viewBox="0 0 92 92">
  <defs>
    <style>
      .cls-1 {
        fill: #f9f9f9;
        stroke: #777;
        stroke-linejoin: round;
        stroke-width: 3px;
      }

      .cls-2 {
        fill: #777;
        fill-rule: evenodd;
      }
    </style>
  </defs>
  <circle id="Circle-1" class="cls-1" cx="46.078" cy="46.06" r="42.234"/>
  <path id="Icon-Music" class="cls-2" d="M389.633,2898.34a2.043,2.043,0,0,0-2.479-2.02l-26.959,5.76a2.05,2.05,0,0,0-1.621,1.99l-0.186,24.15a10.58,10.58,0,0,0-5.285-1.44h-0.087c-5.133,0-9.336,3.57-9.369,7.95-0.034,4.42,4.153,8.06,9.333,8.1h0.086c5.133,0,9.337-3.57,9.371-7.95h0l0.162-21.06,22.853-4.89-0.1,13.53a10.486,10.486,0,0,0-5.286-1.44h-0.087c-5.133,0-9.337,3.56-9.37,7.95-0.034,4.42,4.154,8.05,9.334,8.09h0.085c4.734,0,8.669-3.03,9.282-6.94a2.079,2.079,0,0,0,.088-0.55Zm-36.567,40.38h-0.055c-2.87-.02-5.281-1.83-5.265-3.96s2.381-3.88,5.27-3.88h0.055c2.871,0.03,5.283,1.84,5.267,3.97S355.956,2938.72,353.066,2938.72Zm9.557-28.05,0.038-4.92,22.852-4.89-0.037,4.92Zm17.4,22.29H379.97c-2.87-.02-5.281-1.84-5.265-3.96,0.016-2.14,2.38-3.88,5.27-3.88h0.055c2.872,0.02,5.283,1.84,5.267,3.96C385.281,2931.22,382.916,2932.96,380.024,2932.96Z" transform="translate(-324.5 -2873.5)"/>
</svg>
