<svg id="culture_icon3.svg" xmlns="http://www.w3.org/2000/svg" width="92" height="92" viewBox="0 0 92 92">
  <defs>
    <style>
      .cls-1 {
        fill: #f9f9f9;
        stroke: #777;
        stroke-linejoin: round;
        stroke-width: 3px;
      }

      .cls-2 {
        fill: #777;
        fill-rule: evenodd;
      }
    </style>
  </defs>
  <circle id="Circle-3" class="cls-1" cx="45.796" cy="46.075" r="42.233"/>
  <path id="Icon-Star" class="cls-2" d="M1046.25,2943.08a2.112,2.112,0,0,1-1.18-.35l-12.67-8.23-12.68,8.23a2.168,2.168,0,0,1-2.47-.07,2.2,2.2,0,0,1-.8-2.34l3.97-14.1-11.85-10.04a2.17,2.17,0,0,1,1.25-3.82l14.21-1.02,6.39-14.02a2.171,2.171,0,0,1,3.95,0l6.39,14.02,14.21,1.02a2.17,2.17,0,0,1,1.25,3.82l-11.85,10.04,3.97,14.1A2.165,2.165,0,0,1,1046.25,2943.08Zm-13.85-13.33a2.058,2.058,0,0,1,1.17.35l9.04,5.86-2.79-9.91a2.182,2.182,0,0,1,.68-2.24l8.86-7.5-10.19-.74a2.162,2.162,0,0,1-1.82-1.26l-4.95-10.87-4.96,10.87a2.162,2.162,0,0,1-1.82,1.26l-10.19.74,8.86,7.5a2.182,2.182,0,0,1,.68,2.24l-2.79,9.91,9.04-5.86A2.067,2.067,0,0,1,1032.4,2929.75Z" transform="translate(-985.5 -2873.5)"/>
</svg>
