<svg id="developing_icon2.svg" xmlns="http://www.w3.org/2000/svg" width="74" height="74" viewBox="0 0 74 74">
  <defs>
    <style>
      .cls-1 {
        fill: #fff;
        stroke: #000;
        stroke-linejoin: round;
        stroke-width: 3px;
      }

      .cls-2 {
        fill-rule: evenodd;
      }
    </style>
  </defs>
  <circle id="Circle-2" class="cls-1" cx="36.969" cy="37.095" r="33.125"/>
  <path id="Icon-Laptop" class="cls-2" d="M253.914,2283.18h26.907a4.039,4.039,0,0,1,4.036,4.04v17.49a4.039,4.039,0,0,1-4.036,4.04H253.914a4.039,4.039,0,0,1-4.036-4.04v-17.49A4.039,4.039,0,0,1,253.914,2283.18Zm-4.036,22.87h4.036v2.7h-4.036v-2.7Zm30.943,0h4.036v2.7h-4.036v-2.7Zm-26.907-18.83h26.907v24.22H253.914v-24.22Zm-4.036,24.22h34.979a2.688,2.688,0,0,1,2.691,2.69c0,1.48-2.55,2.69-4.036,2.69H251.223c-1.486,0-4.036-1.21-4.036-2.69A2.688,2.688,0,0,1,249.878,2311.44Zm13.454,2.69H271.4a0.839,0.839,0,1,1,0,1.34h-8.072A0.84,0.84,0,1,1,263.332,2314.13Zm-5-15.16,1.894-1.91a1.345,1.345,0,0,1,1.894,0l4.736,4.76a1.347,1.347,0,0,1,0,1.9l-1.894,1.91a1.345,1.345,0,0,1-1.894,0l-4.736-4.76A1.347,1.347,0,0,1,258.334,2298.97Zm16.168-7.45,1.894,1.9a1.359,1.359,0,0,1,0,1.91l-10.418,10.46a1.327,1.327,0,0,1-1.894,0l-1.894-1.9a1.359,1.359,0,0,1,0-1.91l10.418-10.46A1.327,1.327,0,0,1,274.5,2291.52Z" transform="translate(-229.5 -2262.5)"/>
</svg>
