<svg id="developing_icon3.svg" xmlns="http://www.w3.org/2000/svg" width="74" height="74" viewBox="0 0 74 74">
  <defs>
    <style>
      .cls-1 {
        fill: #fff;
        stroke: #000;
        stroke-linejoin: round;
        stroke-width: 3px;
      }

      .cls-2 {
        fill-rule: evenodd;
      }
    </style>
  </defs>
  <circle id="Circle-3" class="cls-1" cx="36.969" cy="36.935" r="33.125"/>
  <path id="Icon-Locked" class="cls-2" d="M267.968,2368.77c5.154,0,9.333,3.66,9.333,8.17v19.83c0,4.51-4.179,8.17-9.333,8.17s-9.333-3.66-9.333-8.17v-19.83C258.635,2372.43,262.814,2368.77,267.968,2368.77Zm0,4.67c2.577,0,4.666,1.57,4.666,3.5v8.17c0,1.93-2.089,3.5-4.666,3.5s-4.667-1.57-4.667-3.5v-8.17C263.3,2375.01,265.391,2373.44,267.968,2373.44Zm-10.5,12.83h21a3.5,3.5,0,0,1,3.5,3.5v12.83a3.5,3.5,0,0,1-3.5,3.5h-21a3.5,3.5,0,0,1-3.5-3.5v-12.83A3.5,3.5,0,0,1,257.468,2386.27Zm10.5,5.84a2.329,2.329,0,0,1,2.333,2.33v5.83a2.333,2.333,0,0,1-4.666,0v-5.83A2.329,2.329,0,0,1,267.968,2392.11Zm0-2.34a4.665,4.665,0,1,1-4.667,4.67A4.667,4.667,0,0,1,267.968,2389.77Z" transform="translate(-229.5 -2350.5)"/>
</svg>
