<svg xmlns="http://www.w3.org/2000/svg" width="24.969" height="19.97" viewBox="0 0 24.969 19.97">
  <defs>
    <style>
      .cls-1 {
        fill: #ececec;
        fill-rule: evenodd;
      }
    </style>
  </defs>
  <path id="latest_icon4.svg" class="cls-1" d="M547.74,4630.34h19.974a2.49,2.49,0,0,1,2.5,2.49v14.98a2.5,2.5,0,0,1-2.5,2.5H547.74a2.5,2.5,0,0,1-2.5-2.5v-14.98A2.49,2.49,0,0,1,547.74,4630.34Zm12.484,9.15h7.49a0.831,0.831,0,0,1,.833.83,0.839,0.839,0,0,1-.833.84h-7.49a0.838,0.838,0,0,1-.832-0.84A0.83,0.83,0,0,1,560.224,4639.49Zm0-3.33h7.49a0.831,0.831,0,0,1,.833.83,0.839,0.839,0,0,1-.833.84h-7.49a0.838,0.838,0,0,1-.832-0.84A0.83,0.83,0,0,1,560.224,4636.16Zm0,6.66h7.49a0.83,0.83,0,1,1,0,1.66h-7.49A0.83,0.83,0,1,1,560.224,4642.82Zm-12.484-7.49h8.323a0.83,0.83,0,0,1,.832.83v8.32a0.839,0.839,0,0,1-.832.84H547.74a0.838,0.838,0,0,1-.832-0.84v-8.32A0.83,0.83,0,0,1,547.74,4635.33Z" transform="translate(-545.25 -4630.34)"/>
</svg>
