<svg xmlns="http://www.w3.org/2000/svg" width="25.219" height="22.06" viewBox="0 0 25.219 22.06">
  <defs>
    <style>
      .cls-1 {
        fill: #ececec;
        fill-rule: evenodd;
      }
    </style>
  </defs>
  <path id="latest_icon2.svg" class="cls-1" d="M546.578,4548.27h22.055a1.571,1.571,0,0,1,1.575,1.57v18.9a1.579,1.579,0,0,1-1.575,1.58H546.578a1.58,1.58,0,0,1-1.575-1.58v-18.9A1.571,1.571,0,0,1,546.578,4548.27Zm2.363,2.36H566.27a1.571,1.571,0,0,1,1.575,1.57v14.18a1.579,1.579,0,0,1-1.575,1.58H548.941a1.579,1.579,0,0,1-1.575-1.58V4552.2A1.571,1.571,0,0,1,548.941,4550.63Zm3.545,1.57a2.76,2.76,0,1,1-2.757,2.76A2.761,2.761,0,0,1,552.486,4552.2Zm-4.332,14.18,4.726-6.3,3.15,3.94h0.788l5.514-11.03,4.726,13.39h-18.9Z" transform="translate(-545 -4548.25)"/>
</svg>
