<svg id="relax_icon.svg" xmlns="http://www.w3.org/2000/svg" width="31.406" height="31.41" viewBox="0 0 31.406 31.41">
  <defs>
    <style>
      .cls-1 {
        fill: #ccc;
        fill-rule: evenodd;
      }
    </style>
  </defs>
  <path id="Circle-1" class="cls-1" d="M529.968,1485.7a15.7,15.7,0,1,0,15.7-15.7A15.715,15.715,0,0,0,529.968,1485.7Zm1.256,0a14.443,14.443,0,1,1,14.443,14.45A14.459,14.459,0,0,1,531.224,1485.7Z" transform="translate(-529.969 -1470)"/>
  <path id="Checkmark-1" class="cls-1" d="M543.339,1491.68a1.034,1.034,0,0,1-.73-0.3l-4.315-4.31a1.033,1.033,0,0,1,1.461-1.46l3.584,3.58,8.59-8.58a1.02,1.02,0,0,1,1.46,0,1.031,1.031,0,0,1,0,1.46l-9.319,9.31A1.035,1.035,0,0,1,543.339,1491.68Z" transform="translate(-529.969 -1470)"/>
</svg>
