<svg xmlns="http://www.w3.org/2000/svg" width="39.094" height="50.656" viewBox="0 0 39.094 50.656">
  <defs>
    <style>
      .cls-1 {
        fill-rule: evenodd;
      }
    </style>
  </defs>
  <path id="services_icon1.svg" class="cls-1" d="M715.155,899.729H684.674a3.944,3.944,0,0,0-4.3,4.112v42.437a3.944,3.944,0,0,0,4.3,4.112h30.481a3.944,3.944,0,0,0,4.3-4.112V903.841A3.944,3.944,0,0,0,715.155,899.729Zm1.015,46.549c0,0.46,0,.822-1.015.822H684.674c-1.016,0-1.016-.362-1.016-0.822V903.841c0-.459,0-0.822,1.016-0.822h30.481c1.015,0,1.015.363,1.015,0.822v42.437Zm-3.207-40.614h-26.1a1.1,1.1,0,0,0-1.1,1.1v33.121a1.1,1.1,0,0,0,1.1,1.1h26.1a1.1,1.1,0,0,0,1.1-1.1V906.76A1.1,1.1,0,0,0,712.963,905.664Zm-1.095,33.121H687.961V907.857h23.907v30.928Zm-13.31,3.958a1.919,1.919,0,1,0,2.71,0A1.986,1.986,0,0,0,698.558,942.743Z" transform="translate(-680.375 -899.719)"/>
</svg>
