<svg xmlns="http://www.w3.org/2000/svg" width="53.84" height="42.562" viewBox="0 0 53.84 42.562">
  <defs>
    <style>
      .cls-1 {
        fill-rule: evenodd;
      }
    </style>
  </defs>
  <path id="services_icon2.svg" class="cls-1" d="M1007.54,942.276a3.16,3.16,0,0,1-2.7-4.791l7.24-11.955a3.141,3.141,0,0,1,2.55-1.519,3.185,3.185,0,0,1,2.69,1.281l2.94,3.984,6.42-10.754a3.162,3.162,0,0,1,5.23-.288l5.57,7.349,14.88-24.35a3.158,3.158,0,0,1,5.39,3.291l-17.3,28.3a3.139,3.139,0,0,1-2.53,1.506,3.174,3.174,0,0,1-2.68-1.245l-5.54-7.31-6.46,10.813a3.157,3.157,0,0,1-5.25.254l-2.95-4.008-4.8,7.921A3.142,3.142,0,0,1,1007.54,942.276Z" transform="translate(-1004.38 -899.719)"/>
</svg>
