<svg xmlns="http://www.w3.org/2000/svg" width="52.188" height="47" viewBox="0 0 52.188 47">
  <defs>
    <style>
      .cls-1 {
        fill-rule: evenodd;
      }
    </style>
  </defs>
  <path id="services_icon.svg" class="cls-1" d="M394.735,908.776a14.809,14.809,0,0,0-13.288-9.053,13.986,13.986,0,0,0-11.462,5.226,13.982,13.982,0,0,0-11.461-5.226,14.808,14.808,0,0,0-13.288,9.053c-2.539,5.685-1.42,12.015,3,16.931,10.687,11.907,20.131,20.347,20.225,20.431a2.3,2.3,0,0,0,3.059,0c0.094-.084,9.538-8.524,20.225-20.431C396.155,920.791,397.274,914.461,394.735,908.776Zm-6.416,13.864c-8,8.907-15.272,15.832-18.334,18.67-3.062-2.838-10.337-9.763-18.333-18.67-3.214-3.581-4.023-7.951-2.218-11.991a10.347,10.347,0,0,1,9.09-6.333c7.407,0,9.068,5.5,9.229,6.111a2.3,2.3,0,0,0,4.465,0c0.061-.25,1.584-6.111,9.229-6.111a10.348,10.348,0,0,1,9.09,6.333C392.342,914.689,391.533,919.059,388.319,922.64Zm-6.9-15.82a2.3,2.3,0,1,0-.62,4.551c0.12,0.016,2.949.447,3.218,4.489A2.3,2.3,0,0,0,386.312,918c0.051,0,.1,0,0.155,0a2.3,2.3,0,0,0,2.141-2.445C388.2,909.363,383.728,907.133,381.423,906.82ZM383.531,919a2.333,2.333,0,0,0-1.626.672,2.3,2.3,0,0,0,0,3.249A2.3,2.3,0,1,0,383.531,919Z" transform="translate(-343.906 -899.719)"/>
</svg>
