<svg xmlns="http://www.w3.org/2000/svg" width="23.468" height="17.37" viewBox="0 0 23.468 17.37">
  <defs>
    <style>
      .cls-1 {
        fill: #ececec;
        fill-rule: evenodd;
      }
    </style>
  </defs>
  <path id="tweets_icon2.svg" class="cls-1" d="M880.168,4520.33s3.165,1.45,4.48,1.45a4.1,4.1,0,0,0,4.16-1.48,0.592,0.592,0,0,0-.144-0.88s-5.395-1.59-5.012-2.52c0,0-.024-0.53.669-0.41,0,0,.781-0.77.4-1.01,0,0-.6-0.78-0.119-0.83,0,0,1.219.33,1.673,0.45,0,0,.311-0.11.024-0.32a1.7,1.7,0,0,1-.7-0.74s0.2-.46.964-0.13c0,0,.239-0.05.024-0.29,0,0-.551-0.38-0.24-0.69,0,0,.876-0.63,3.1,2.07,0,0,.406.55,0.454,0.02,0,0,1.612-6.86,4.218-7.32a1.408,1.408,0,0,0,1-.09,1.244,1.244,0,0,1,.964-0.05,0.376,0.376,0,0,0,.526.14s1.028-.4.717,0.26a5.453,5.453,0,0,1-1.418.98c-0.359.02-.287,0.36,0.024,0.4,0,0,4.375.39,4.375,3.59,0,0,.251.76,1.064-0.03a9.06,9.06,0,0,1,1.542-.82s0.334-.21.287,0.29a5.849,5.849,0,0,1-1.793,1.96s-0.55.7,0.239,0.55a5.02,5.02,0,0,0,1.126-.37s0.932-.46.5,0.36a12.041,12.041,0,0,1-2.393,1.27,0.374,0.374,0,0,0-.287.34s-0.263,8.36-11.213,8.36a11.95,11.95,0,0,1-9.069-3.89S879.619,4520.21,880.168,4520.33Z" transform="translate(-879.938 -4507.47)"/>
</svg>
