<svg xmlns="http://www.w3.org/2000/svg" width="23.406" height="17.38" viewBox="0 0 23.406 17.38">
  <defs>
    <style>
      .cls-1 {
        fill: #ececec;
        fill-rule: evenodd;
      }
    </style>
  </defs>
  <path id="tweets_icon1.svg" class="cls-1" d="M880.168,4640.87s3.165,1.46,4.48,1.46a4.114,4.114,0,0,0,4.16-1.49,0.591,0.591,0,0,0-.144-0.88s-5.395-1.58-5.012-2.52c0,0-.024-0.52.669-0.4,0,0,.781-0.78.4-1.02,0,0-.6-0.77-0.119-0.82,0,0,1.219.33,1.673,0.45,0,0,.311-0.11.024-0.33a1.751,1.751,0,0,1-.7-0.73s0.2-.47.964-0.14c0,0,.239-0.04.024-0.28,0,0-.551-0.39-0.24-0.7,0,0,.876-0.63,3.1,2.07,0,0,.406.55,0.454,0.03,0,0,1.612-6.87,4.218-7.32a1.42,1.42,0,0,0,1-.1,1.244,1.244,0,0,1,.964-0.05,0.385,0.385,0,0,0,.526.15s1.028-.41.717,0.26a5.225,5.225,0,0,1-1.418.97c-0.359.02-.287,0.36,0.024,0.41,0,0,4.375.38,4.375,3.58,0,0,.251.77,1.064-0.02a8.4,8.4,0,0,1,1.542-.82s0.334-.22.287,0.28a5.849,5.849,0,0,1-1.793,1.97s-0.55.69,0.239,0.55a4.709,4.709,0,0,0,1.126-.38s0.932-.45.5,0.36a12.041,12.041,0,0,1-2.393,1.27,0.388,0.388,0,0,0-.287.34s-0.263,8.36-11.213,8.36a11.95,11.95,0,0,1-9.069-3.89S879.619,4640.75,880.168,4640.87Z" transform="translate(-879.969 -4628)"/>
</svg>
